<mxfile host="Electron" modified="2024-02-26T04:08:57.657Z" agent="Mozilla/5.0 (X11; Linux x86_64) AppleWebKit/537.36 (KHTML, like Gecko) draw.io/23.1.5 Chrome/120.0.6099.109 Electron/28.1.0 Safari/537.36" etag="YsPeM_SCj1nx4fDLFNkT" version="23.1.5" type="device" pages="5">
  <diagram id="ROh9XYKbW4o1jm8X1xmY" name="buffer">
    <mxGraphModel dx="1434" dy="785" grid="1" gridSize="10" guides="1" tooltips="1" connect="1" arrows="1" fold="1" page="1" pageScale="1" pageWidth="3300" pageHeight="2339" math="0" shadow="0">
      <root>
        <mxCell id="MpwomcFKy62xzBs-vsj5-0" />
        <mxCell id="MpwomcFKy62xzBs-vsj5-1" parent="MpwomcFKy62xzBs-vsj5-0" />
        <mxCell id="N1xLdBgv11pV67xhanad-0" value="AVFrame" style="rounded=0;whiteSpace=wrap;html=1;" parent="MpwomcFKy62xzBs-vsj5-1" vertex="1">
          <mxGeometry x="445" y="145" width="120" height="60" as="geometry" />
        </mxCell>
        <mxCell id="N1xLdBgv11pV67xhanad-2" value="" style="endArrow=classic;html=1;" parent="MpwomcFKy62xzBs-vsj5-1" edge="1">
          <mxGeometry width="50" height="50" relative="1" as="geometry">
            <mxPoint x="315" y="174.5" as="sourcePoint" />
            <mxPoint x="435" y="174.5" as="targetPoint" />
          </mxGeometry>
        </mxCell>
        <mxCell id="N1xLdBgv11pV67xhanad-3" value="av_frame_alloc" style="text;whiteSpace=wrap;html=1;" parent="MpwomcFKy62xzBs-vsj5-1" vertex="1">
          <mxGeometry x="325" y="135" width="110" height="30" as="geometry" />
        </mxCell>
        <mxCell id="N1xLdBgv11pV67xhanad-4" value="" style="curved=1;endArrow=classic;html=1;" parent="MpwomcFKy62xzBs-vsj5-1" edge="1">
          <mxGeometry width="50" height="50" relative="1" as="geometry">
            <mxPoint x="455" y="125" as="sourcePoint" />
            <mxPoint x="545" y="135" as="targetPoint" />
            <Array as="points">
              <mxPoint x="445" y="95" />
              <mxPoint x="535" y="75" />
            </Array>
          </mxGeometry>
        </mxCell>
        <mxCell id="N1xLdBgv11pV67xhanad-5" value="init&amp;nbsp; parameter:&lt;br&gt;&lt;div style=&quot;text-align: left&quot;&gt;&lt;span&gt;sample_rate&lt;/span&gt;&lt;/div&gt;channel_layout" style="text;html=1;align=center;verticalAlign=middle;resizable=0;points=[];autosize=1;" parent="MpwomcFKy62xzBs-vsj5-1" vertex="1">
          <mxGeometry x="455" y="25" width="100" height="50" as="geometry" />
        </mxCell>
        <mxCell id="N1xLdBgv11pV67xhanad-7" value="" style="endArrow=classic;html=1;strokeColor=#EA6B66;" parent="MpwomcFKy62xzBs-vsj5-1" edge="1">
          <mxGeometry width="50" height="50" relative="1" as="geometry">
            <mxPoint x="585" y="175" as="sourcePoint" />
            <mxPoint x="705" y="175" as="targetPoint" />
          </mxGeometry>
        </mxCell>
        <mxCell id="N1xLdBgv11pV67xhanad-8" value="av_frame_get_buffer" style="text;whiteSpace=wrap;html=1;" parent="MpwomcFKy62xzBs-vsj5-1" vertex="1">
          <mxGeometry x="462.5" y="275" width="110" height="30" as="geometry" />
        </mxCell>
        <mxCell id="N1xLdBgv11pV67xhanad-9" value="AVBufferRef" style="rounded=0;whiteSpace=wrap;html=1;" parent="MpwomcFKy62xzBs-vsj5-1" vertex="1">
          <mxGeometry x="725" y="145" width="120" height="60" as="geometry" />
        </mxCell>
        <mxCell id="N1xLdBgv11pV67xhanad-10" value="&lt;font color=&quot;#ea6b66&quot;&gt;av_buffer_alloc&lt;/font&gt;" style="text;whiteSpace=wrap;html=1;" parent="MpwomcFKy62xzBs-vsj5-1" vertex="1">
          <mxGeometry x="595" y="135" width="110" height="30" as="geometry" />
        </mxCell>
        <mxCell id="N1xLdBgv11pV67xhanad-12" value="" style="curved=1;endArrow=classic;html=1;" parent="MpwomcFKy62xzBs-vsj5-1" edge="1">
          <mxGeometry width="50" height="50" relative="1" as="geometry">
            <mxPoint x="455" y="220" as="sourcePoint" />
            <mxPoint x="545" y="230" as="targetPoint" />
            <Array as="points">
              <mxPoint x="465" y="270" />
              <mxPoint x="535" y="250" />
            </Array>
          </mxGeometry>
        </mxCell>
        <mxCell id="N1xLdBgv11pV67xhanad-14" value="&lt;span style=&quot;text-align: left&quot;&gt;AVBuffer&lt;/span&gt;" style="rounded=0;whiteSpace=wrap;html=1;" parent="MpwomcFKy62xzBs-vsj5-1" vertex="1">
          <mxGeometry x="995" y="144" width="120" height="60" as="geometry" />
        </mxCell>
        <mxCell id="N1xLdBgv11pV67xhanad-15" value="" style="endArrow=classic;html=1;strokeColor=#EA6B66;" parent="MpwomcFKy62xzBs-vsj5-1" edge="1">
          <mxGeometry width="50" height="50" relative="1" as="geometry">
            <mxPoint x="865" y="174.5" as="sourcePoint" />
            <mxPoint x="985" y="174.5" as="targetPoint" />
          </mxGeometry>
        </mxCell>
        <mxCell id="N1xLdBgv11pV67xhanad-16" value="&lt;font color=&quot;#ea6b66&quot;&gt;av_buffer_create&lt;/font&gt;" style="text;whiteSpace=wrap;html=1;" parent="MpwomcFKy62xzBs-vsj5-1" vertex="1">
          <mxGeometry x="865" y="135" width="110" height="30" as="geometry" />
        </mxCell>
        <mxCell id="MtS7r9fVIatzjm5FKr_W-0" value="av_frame_unref" style="text;whiteSpace=wrap;html=1;" parent="MpwomcFKy62xzBs-vsj5-1" vertex="1">
          <mxGeometry x="642.5" y="605" width="110" height="30" as="geometry" />
        </mxCell>
        <mxCell id="MtS7r9fVIatzjm5FKr_W-1" value="av_frame_free" style="text;whiteSpace=wrap;html=1;" parent="MpwomcFKy62xzBs-vsj5-1" vertex="1">
          <mxGeometry x="642.5" y="635" width="100" height="30" as="geometry" />
        </mxCell>
        <mxCell id="MtS7r9fVIatzjm5FKr_W-2" value="av_frame_ref" style="text;whiteSpace=wrap;html=1;" parent="MpwomcFKy62xzBs-vsj5-1" vertex="1">
          <mxGeometry x="642.5" y="570" width="100" height="30" as="geometry" />
        </mxCell>
        <mxCell id="MtS7r9fVIatzjm5FKr_W-4" value="&lt;span style=&quot;text-align: left ; text-indent: 0px ; background-color: rgb(248 , 249 , 250) ; display: inline ; float: none&quot;&gt;&lt;font face=&quot;helvetica&quot;&gt;AVBuffer&lt;/font&gt;&lt;br&gt;&lt;br&gt;&lt;font face=&quot;helvetica&quot;&gt;uint8_t *data&lt;br&gt;&lt;/font&gt;atomic_uint refcount&lt;br&gt;void (*free)(void *opaque, uint8_t *data)&lt;br&gt;&lt;/span&gt;" style="text;whiteSpace=wrap;html=1;strokeColor=#3333FF;strokeWidth=2;" parent="MpwomcFKy62xzBs-vsj5-1" vertex="1">
          <mxGeometry x="1112.5" y="591" width="230" height="90" as="geometry" />
        </mxCell>
        <mxCell id="MtS7r9fVIatzjm5FKr_W-6" value="av_buffer_ref" style="text;whiteSpace=wrap;html=1;" parent="MpwomcFKy62xzBs-vsj5-1" vertex="1">
          <mxGeometry x="992.5" y="635" width="100" height="30" as="geometry" />
        </mxCell>
        <mxCell id="MtS7r9fVIatzjm5FKr_W-7" value="av_buffer_unref" style="text;whiteSpace=wrap;html=1;" parent="MpwomcFKy62xzBs-vsj5-1" vertex="1">
          <mxGeometry x="992.5" y="591" width="110" height="30" as="geometry" />
        </mxCell>
        <mxCell id="MtS7r9fVIatzjm5FKr_W-10" value="" style="endArrow=classic;html=1;strokeColor=#3333FF;" parent="MpwomcFKy62xzBs-vsj5-1" edge="1">
          <mxGeometry width="50" height="50" relative="1" as="geometry">
            <mxPoint x="947.5" y="622.5" as="sourcePoint" />
            <mxPoint x="1097.5" y="622.5" as="targetPoint" />
          </mxGeometry>
        </mxCell>
        <mxCell id="MtS7r9fVIatzjm5FKr_W-15" value="AVFrame&lt;br&gt;AVBufferRef *buf[]&lt;br&gt;uint8_t *data[]" style="text;whiteSpace=wrap;html=1;strokeColor=#3333FF;strokeWidth=2;" parent="MpwomcFKy62xzBs-vsj5-1" vertex="1">
          <mxGeometry x="482.5" y="596" width="120" height="60" as="geometry" />
        </mxCell>
        <mxCell id="MtS7r9fVIatzjm5FKr_W-17" value="" style="endArrow=classic;html=1;strokeColor=#3333FF;" parent="MpwomcFKy62xzBs-vsj5-1" edge="1">
          <mxGeometry width="50" height="50" relative="1" as="geometry">
            <mxPoint x="632.5" y="600" as="sourcePoint" />
            <mxPoint x="782.5" y="600" as="targetPoint" />
          </mxGeometry>
        </mxCell>
        <mxCell id="MtS7r9fVIatzjm5FKr_W-18" value="" style="endArrow=classic;html=1;strokeColor=#3333FF;" parent="MpwomcFKy62xzBs-vsj5-1" edge="1">
          <mxGeometry width="50" height="50" relative="1" as="geometry">
            <mxPoint x="627.5" y="634.5" as="sourcePoint" />
            <mxPoint x="777.5" y="634.5" as="targetPoint" />
          </mxGeometry>
        </mxCell>
        <mxCell id="MtS7r9fVIatzjm5FKr_W-19" value="" style="endArrow=classic;html=1;strokeColor=#3333FF;" parent="MpwomcFKy62xzBs-vsj5-1" edge="1">
          <mxGeometry width="50" height="50" relative="1" as="geometry">
            <mxPoint x="632.5" y="665" as="sourcePoint" />
            <mxPoint x="782.5" y="665" as="targetPoint" />
          </mxGeometry>
        </mxCell>
        <mxCell id="MtS7r9fVIatzjm5FKr_W-20" value="" style="endArrow=classic;html=1;strokeColor=#3333FF;" parent="MpwomcFKy62xzBs-vsj5-1" edge="1">
          <mxGeometry width="50" height="50" relative="1" as="geometry">
            <mxPoint x="947.5" y="663" as="sourcePoint" />
            <mxPoint x="1097.5" y="663" as="targetPoint" />
          </mxGeometry>
        </mxCell>
        <mxCell id="MtS7r9fVIatzjm5FKr_W-21" value="" style="rounded=0;whiteSpace=wrap;html=1;strokeColor=none;fillColor=#3333FF;" parent="MpwomcFKy62xzBs-vsj5-1" vertex="1">
          <mxGeometry x="1112.5" y="696" width="160" height="40" as="geometry" />
        </mxCell>
        <mxCell id="MtS7r9fVIatzjm5FKr_W-24" value="" style="curved=1;endArrow=classic;html=1;strokeColor=#3333FF;" parent="MpwomcFKy62xzBs-vsj5-1" edge="1">
          <mxGeometry width="50" height="50" relative="1" as="geometry">
            <mxPoint x="552.5" y="666" as="sourcePoint" />
            <mxPoint x="1122.5" y="746" as="targetPoint" />
            <Array as="points">
              <mxPoint x="682.5" y="826" />
            </Array>
          </mxGeometry>
        </mxCell>
        <mxCell id="MtS7r9fVIatzjm5FKr_W-25" value="" style="curved=1;endArrow=classic;html=1;strokeColor=#3333FF;" parent="MpwomcFKy62xzBs-vsj5-1" edge="1">
          <mxGeometry width="50" height="50" relative="1" as="geometry">
            <mxPoint x="542.5" y="666" as="sourcePoint" />
            <mxPoint x="1192.5" y="746" as="targetPoint" />
            <Array as="points">
              <mxPoint x="672.5" y="841" />
            </Array>
          </mxGeometry>
        </mxCell>
        <mxCell id="MtS7r9fVIatzjm5FKr_W-26" value="data[0]" style="text;html=1;align=center;verticalAlign=middle;resizable=0;points=[];autosize=1;" parent="MpwomcFKy62xzBs-vsj5-1" vertex="1">
          <mxGeometry x="482.5" y="666" width="50" height="20" as="geometry" />
        </mxCell>
        <mxCell id="MtS7r9fVIatzjm5FKr_W-27" value="data[1]" style="text;html=1;align=center;verticalAlign=middle;resizable=0;points=[];autosize=1;" parent="MpwomcFKy62xzBs-vsj5-1" vertex="1">
          <mxGeometry x="482.5" y="686" width="50" height="20" as="geometry" />
        </mxCell>
        <mxCell id="MtS7r9fVIatzjm5FKr_W-29" value="&lt;div&gt;AVBufferRef&lt;/div&gt;&lt;div&gt;&lt;br&gt;&lt;/div&gt;&lt;span style=&quot;text-align: center&quot;&gt;AVBuffer *buffer&lt;/span&gt;&lt;br style=&quot;text-align: center&quot;&gt;&lt;div&gt;uint8_t *data&lt;/div&gt;" style="text;whiteSpace=wrap;html=1;strokeColor=#3333FF;strokeWidth=2;" parent="MpwomcFKy62xzBs-vsj5-1" vertex="1">
          <mxGeometry x="802.5" y="595" width="130" height="70" as="geometry" />
        </mxCell>
        <mxCell id="MtS7r9fVIatzjm5FKr_W-30" value="data" style="text;html=1;align=center;verticalAlign=middle;resizable=0;points=[];autosize=1;" parent="MpwomcFKy62xzBs-vsj5-1" vertex="1">
          <mxGeometry x="1072.5" y="696" width="40" height="20" as="geometry" />
        </mxCell>
        <mxCell id="hjxCRJMXFLs2IKsaN5QG-0" value="&lt;div&gt;AVBufferRef&lt;/div&gt;&lt;div&gt;&lt;br&gt;&lt;/div&gt;" style="text;whiteSpace=wrap;html=1;strokeColor=#3333FF;strokeWidth=2;" parent="MpwomcFKy62xzBs-vsj5-1" vertex="1">
          <mxGeometry x="802.5" y="520" width="100" height="60" as="geometry" />
        </mxCell>
        <mxCell id="hjxCRJMXFLs2IKsaN5QG-1" value="" style="html=1;verticalLabelPosition=bottom;align=center;labelBackgroundColor=#ffffff;verticalAlign=top;strokeWidth=2;strokeColor=#0080F0;shadow=0;dashed=0;shape=mxgraph.ios7.icons.add;fillColor=none;" parent="MpwomcFKy62xzBs-vsj5-1" vertex="1">
          <mxGeometry x="1152.5" y="545" width="30" height="30" as="geometry" />
        </mxCell>
        <mxCell id="hjxCRJMXFLs2IKsaN5QG-2" value="refcount" style="text;html=1;align=center;verticalAlign=middle;resizable=0;points=[];autosize=1;" parent="MpwomcFKy62xzBs-vsj5-1" vertex="1">
          <mxGeometry x="1092.5" y="555" width="60" height="20" as="geometry" />
        </mxCell>
        <mxCell id="hjxCRJMXFLs2IKsaN5QG-3" value="" style="curved=1;endArrow=classic;html=1;strokeColor=#3333FF;" parent="MpwomcFKy62xzBs-vsj5-1" edge="1">
          <mxGeometry width="50" height="50" relative="1" as="geometry">
            <mxPoint x="912.5" y="560" as="sourcePoint" />
            <mxPoint x="1132.5" y="550" as="targetPoint" />
            <Array as="points">
              <mxPoint x="1052.5" y="540" />
            </Array>
          </mxGeometry>
        </mxCell>
        <mxCell id="hjxCRJMXFLs2IKsaN5QG-4" value="" style="curved=1;endArrow=classic;html=1;strokeColor=#3333FF;" parent="MpwomcFKy62xzBs-vsj5-1" edge="1">
          <mxGeometry width="50" height="50" relative="1" as="geometry">
            <mxPoint x="942.5" y="595" as="sourcePoint" />
            <mxPoint x="1132.5" y="580" as="targetPoint" />
            <Array as="points">
              <mxPoint x="982.5" y="595" />
            </Array>
          </mxGeometry>
        </mxCell>
        <mxCell id="lqSCMt7V2rYFx3isoYKJ-0" value="" style="rounded=0;whiteSpace=wrap;html=1;dashed=1;" parent="MpwomcFKy62xzBs-vsj5-1" vertex="1">
          <mxGeometry x="110" y="20" width="180" height="90" as="geometry" />
        </mxCell>
        <mxCell id="lqSCMt7V2rYFx3isoYKJ-1" value="" style="endArrow=none;html=1;strokeWidth=2;" parent="MpwomcFKy62xzBs-vsj5-1" edge="1">
          <mxGeometry width="50" height="50" relative="1" as="geometry">
            <mxPoint x="130" y="35" as="sourcePoint" />
            <mxPoint x="200" y="35" as="targetPoint" />
          </mxGeometry>
        </mxCell>
        <mxCell id="lqSCMt7V2rYFx3isoYKJ-2" value="user" style="text;html=1;align=center;verticalAlign=middle;resizable=0;points=[];autosize=1;" parent="MpwomcFKy62xzBs-vsj5-1" vertex="1">
          <mxGeometry x="225" y="25" width="40" height="20" as="geometry" />
        </mxCell>
        <mxCell id="lqSCMt7V2rYFx3isoYKJ-3" value="" style="endArrow=none;html=1;strokeWidth=2;strokeColor=#EA6B66;" parent="MpwomcFKy62xzBs-vsj5-1" edge="1">
          <mxGeometry width="50" height="50" relative="1" as="geometry">
            <mxPoint x="130" y="65" as="sourcePoint" />
            <mxPoint x="200" y="65" as="targetPoint" />
          </mxGeometry>
        </mxCell>
        <mxCell id="lqSCMt7V2rYFx3isoYKJ-4" value="internal" style="text;html=1;align=center;verticalAlign=middle;resizable=0;points=[];autosize=1;" parent="MpwomcFKy62xzBs-vsj5-1" vertex="1">
          <mxGeometry x="225" y="55" width="50" height="20" as="geometry" />
        </mxCell>
        <mxCell id="lqSCMt7V2rYFx3isoYKJ-5" value="" style="endArrow=none;html=1;strokeWidth=2;strokeColor=#3333FF;" parent="MpwomcFKy62xzBs-vsj5-1" edge="1">
          <mxGeometry width="50" height="50" relative="1" as="geometry">
            <mxPoint x="130" y="95" as="sourcePoint" />
            <mxPoint x="200" y="95" as="targetPoint" />
          </mxGeometry>
        </mxCell>
        <mxCell id="lqSCMt7V2rYFx3isoYKJ-7" value="detail" style="text;html=1;align=center;verticalAlign=middle;resizable=0;points=[];autosize=1;" parent="MpwomcFKy62xzBs-vsj5-1" vertex="1">
          <mxGeometry x="230" y="85" width="40" height="20" as="geometry" />
        </mxCell>
        <mxCell id="lqSCMt7V2rYFx3isoYKJ-10" value="" style="rounded=0;whiteSpace=wrap;html=1;strokeColor=#3333FF;strokeWidth=2;fillColor=none;dashed=1;" parent="MpwomcFKy62xzBs-vsj5-1" vertex="1">
          <mxGeometry x="462.5" y="510" width="890" height="290" as="geometry" />
        </mxCell>
        <mxCell id="lqSCMt7V2rYFx3isoYKJ-11" value="&lt;font style=&quot;font-size: 18px&quot;&gt;buffer detail&lt;/font&gt;" style="text;html=1;strokeColor=none;fillColor=none;align=center;verticalAlign=middle;whiteSpace=wrap;rounded=0;dashed=1;" parent="MpwomcFKy62xzBs-vsj5-1" vertex="1">
          <mxGeometry x="862.5" y="480" width="120" height="20" as="geometry" />
        </mxCell>
        <mxCell id="lqSCMt7V2rYFx3isoYKJ-13" value="1" style="ellipse;whiteSpace=wrap;html=1;aspect=fixed;strokeWidth=2;fontFamily=Tahoma;spacingBottom=4;spacingRight=2;fillColor=none;" parent="MpwomcFKy62xzBs-vsj5-1" vertex="1">
          <mxGeometry x="300" y="140" width="20" height="20" as="geometry" />
        </mxCell>
        <mxCell id="lqSCMt7V2rYFx3isoYKJ-14" value="2" style="ellipse;whiteSpace=wrap;html=1;aspect=fixed;strokeWidth=2;fontFamily=Tahoma;spacingBottom=4;spacingRight=2;fillColor=none;" parent="MpwomcFKy62xzBs-vsj5-1" vertex="1">
          <mxGeometry x="425" y="40" width="20" height="20" as="geometry" />
        </mxCell>
        <mxCell id="lqSCMt7V2rYFx3isoYKJ-15" value="3" style="ellipse;whiteSpace=wrap;html=1;aspect=fixed;strokeWidth=2;fontFamily=Tahoma;spacingBottom=4;spacingRight=2;fillColor=none;" parent="MpwomcFKy62xzBs-vsj5-1" vertex="1">
          <mxGeometry x="437.5" y="280" width="20" height="20" as="geometry" />
        </mxCell>
        <mxCell id="lqSCMt7V2rYFx3isoYKJ-17" value="4" style="ellipse;whiteSpace=wrap;html=1;aspect=fixed;strokeWidth=2;fontFamily=Tahoma;spacingBottom=4;spacingRight=2;fillColor=none;" parent="MpwomcFKy62xzBs-vsj5-1" vertex="1">
          <mxGeometry x="300" y="325" width="20" height="20" as="geometry" />
        </mxCell>
        <mxCell id="lqSCMt7V2rYFx3isoYKJ-18" value="avcodec_send_frame/&lt;br&gt;av_buffersrc_add_frame" style="text;html=1;align=left;verticalAlign=middle;resizable=0;points=[];autosize=1;" parent="MpwomcFKy62xzBs-vsj5-1" vertex="1">
          <mxGeometry x="330" y="320" width="150" height="30" as="geometry" />
        </mxCell>
        <mxCell id="lqSCMt7V2rYFx3isoYKJ-21" value="av_frame_unref" style="text;whiteSpace=wrap;html=1;" parent="MpwomcFKy62xzBs-vsj5-1" vertex="1">
          <mxGeometry x="330" y="360" width="110" height="30" as="geometry" />
        </mxCell>
        <mxCell id="lqSCMt7V2rYFx3isoYKJ-22" value="av_frame_free" style="text;whiteSpace=wrap;html=1;" parent="MpwomcFKy62xzBs-vsj5-1" vertex="1">
          <mxGeometry x="330" y="400" width="100" height="30" as="geometry" />
        </mxCell>
        <mxCell id="lqSCMt7V2rYFx3isoYKJ-23" value="5" style="ellipse;whiteSpace=wrap;html=1;aspect=fixed;strokeWidth=2;fontFamily=Tahoma;spacingBottom=4;spacingRight=2;fillColor=none;" parent="MpwomcFKy62xzBs-vsj5-1" vertex="1">
          <mxGeometry x="300" y="370" width="20" height="20" as="geometry" />
        </mxCell>
        <mxCell id="lqSCMt7V2rYFx3isoYKJ-26" value="6" style="ellipse;whiteSpace=wrap;html=1;aspect=fixed;strokeWidth=2;fontFamily=Tahoma;spacingBottom=4;spacingRight=2;fillColor=none;" parent="MpwomcFKy62xzBs-vsj5-1" vertex="1">
          <mxGeometry x="300" y="410" width="20" height="20" as="geometry" />
        </mxCell>
        <mxCell id="lqSCMt7V2rYFx3isoYKJ-29" value="" style="endArrow=classic;html=1;strokeColor=#3333FF;strokeWidth=3;dashed=1;" parent="MpwomcFKy62xzBs-vsj5-1" edge="1">
          <mxGeometry width="50" height="50" relative="1" as="geometry">
            <mxPoint x="670" y="325" as="sourcePoint" />
            <mxPoint x="780" y="415" as="targetPoint" />
          </mxGeometry>
        </mxCell>
      </root>
    </mxGraphModel>
  </diagram>
  <diagram id="ZSO58BGhSy4XshJGXgse" name="filter">
    <mxGraphModel dx="1434" dy="785" grid="1" gridSize="10" guides="1" tooltips="1" connect="1" arrows="1" fold="1" page="1" pageScale="1" pageWidth="3300" pageHeight="2339" math="0" shadow="0">
      <root>
        <mxCell id="0" />
        <mxCell id="1" parent="0" />
        <mxCell id="GRe6sTUg2VjY-s5vXv-f-2" value="&lt;span style=&quot;text-align: left&quot;&gt;AVFilterGraph&lt;/span&gt;" style="rounded=0;whiteSpace=wrap;html=1;" parent="1" vertex="1">
          <mxGeometry x="80" y="315" width="120" height="60" as="geometry" />
        </mxCell>
        <mxCell id="GRe6sTUg2VjY-s5vXv-f-3" value="AVFilter" style="whiteSpace=wrap;html=1;" parent="1" vertex="1">
          <mxGeometry x="960" y="200" width="100" height="60" as="geometry" />
        </mxCell>
        <mxCell id="GRe6sTUg2VjY-s5vXv-f-4" value="AVFilterContext" style="whiteSpace=wrap;html=1;" parent="1" vertex="1">
          <mxGeometry x="590" y="200" width="120" height="60" as="geometry" />
        </mxCell>
        <mxCell id="GRe6sTUg2VjY-s5vXv-f-6" value="&lt;meta charset=&quot;utf-8&quot;&gt;&lt;span style=&quot;color: rgb(0, 0, 0); font-family: helvetica; font-size: 12px; font-style: normal; font-weight: 400; letter-spacing: normal; text-align: left; text-indent: 0px; text-transform: none; word-spacing: 0px; background-color: rgb(248, 249, 250); display: inline; float: none;&quot;&gt;AVFilterLink&lt;/span&gt;" style="whiteSpace=wrap;html=1;" parent="1" vertex="1">
          <mxGeometry x="410" y="320" width="100" height="50" as="geometry" />
        </mxCell>
        <mxCell id="GRe6sTUg2VjY-s5vXv-f-13" value="" style="endArrow=classic;html=1;" parent="1" edge="1">
          <mxGeometry width="50" height="50" relative="1" as="geometry">
            <mxPoint x="940" y="229" as="sourcePoint" />
            <mxPoint x="730" y="229" as="targetPoint" />
          </mxGeometry>
        </mxCell>
        <mxCell id="GRe6sTUg2VjY-s5vXv-f-14" value="avfilter_graph_alloc_filter" style="text;whiteSpace=wrap;html=1;" parent="1" vertex="1">
          <mxGeometry x="755" y="200" width="160" height="30" as="geometry" />
        </mxCell>
        <mxCell id="GRe6sTUg2VjY-s5vXv-f-15" value="alloc filter resource and save in context" style="text;html=1;align=center;verticalAlign=middle;resizable=0;points=[];autosize=1;" parent="1" vertex="1">
          <mxGeometry x="725" y="240" width="220" height="20" as="geometry" />
        </mxCell>
        <mxCell id="GRe6sTUg2VjY-s5vXv-f-21" value="" style="curved=1;endArrow=classic;html=1;" parent="1" edge="1">
          <mxGeometry width="50" height="50" relative="1" as="geometry">
            <mxPoint x="610" y="190" as="sourcePoint" />
            <mxPoint x="690" y="190" as="targetPoint" />
            <Array as="points">
              <mxPoint x="600" y="110" />
              <mxPoint x="700" y="110" />
            </Array>
          </mxGeometry>
        </mxCell>
        <mxCell id="GRe6sTUg2VjY-s5vXv-f-24" value="avfilter_init_str" style="text;whiteSpace=wrap;html=1;" parent="1" vertex="1">
          <mxGeometry x="610" y="70" width="100" height="30" as="geometry" />
        </mxCell>
        <mxCell id="GRe6sTUg2VjY-s5vXv-f-25" value="AVFilterContext" style="whiteSpace=wrap;html=1;" parent="1" vertex="1">
          <mxGeometry x="590" y="450" width="110" height="60" as="geometry" />
        </mxCell>
        <mxCell id="GRe6sTUg2VjY-s5vXv-f-26" value="" style="curved=1;endArrow=classic;html=1;" parent="1" edge="1">
          <mxGeometry width="50" height="50" relative="1" as="geometry">
            <mxPoint x="550" y="500" as="sourcePoint" />
            <mxPoint x="570" y="230" as="targetPoint" />
            <Array as="points">
              <mxPoint x="360" y="410" />
              <mxPoint x="420" y="250" />
            </Array>
          </mxGeometry>
        </mxCell>
        <mxCell id="GRe6sTUg2VjY-s5vXv-f-27" value="avfilter_link" style="text;whiteSpace=wrap;html=1;" parent="1" vertex="1">
          <mxGeometry x="300" y="330" width="90" height="30" as="geometry" />
        </mxCell>
        <mxCell id="GRe6sTUg2VjY-s5vXv-f-29" value="&lt;span style=&quot;text-align: left&quot;&gt;avfilter_get_by_name&lt;/span&gt;" style="text;html=1;align=center;verticalAlign=middle;resizable=0;points=[];autosize=1;" parent="1" vertex="1">
          <mxGeometry x="1060" y="205" width="130" height="20" as="geometry" />
        </mxCell>
        <mxCell id="GRe6sTUg2VjY-s5vXv-f-30" value="&lt;span style=&quot;text-align: left&quot;&gt;filter_list.c&lt;/span&gt;" style="text;html=1;align=center;verticalAlign=middle;resizable=0;points=[];autosize=1;" parent="1" vertex="1">
          <mxGeometry x="1090" y="240" width="70" height="20" as="geometry" />
        </mxCell>
        <mxCell id="GRe6sTUg2VjY-s5vXv-f-32" value="" style="endArrow=classic;html=1;" parent="1" edge="1">
          <mxGeometry width="50" height="50" relative="1" as="geometry">
            <mxPoint x="1180" y="230" as="sourcePoint" />
            <mxPoint x="1070" y="230" as="targetPoint" />
          </mxGeometry>
        </mxCell>
        <mxCell id="GRe6sTUg2VjY-s5vXv-f-33" value="" style="shape=curlyBracket;whiteSpace=wrap;html=1;rounded=1;direction=east;" parent="1" vertex="1">
          <mxGeometry x="230" y="240" width="40" height="210" as="geometry" />
        </mxCell>
        <mxCell id="GRe6sTUg2VjY-s5vXv-f-36" value="" style="rounded=0;whiteSpace=wrap;html=1;dashed=1;" parent="1" vertex="1">
          <mxGeometry x="90" y="50" width="180" height="90" as="geometry" />
        </mxCell>
        <mxCell id="GRe6sTUg2VjY-s5vXv-f-38" value="" style="endArrow=none;html=1;strokeWidth=2;" parent="1" edge="1">
          <mxGeometry width="50" height="50" relative="1" as="geometry">
            <mxPoint x="100" y="80" as="sourcePoint" />
            <mxPoint x="170" y="80" as="targetPoint" />
          </mxGeometry>
        </mxCell>
        <mxCell id="GRe6sTUg2VjY-s5vXv-f-39" value="init stage" style="text;html=1;align=center;verticalAlign=middle;resizable=0;points=[];autosize=1;" parent="1" vertex="1">
          <mxGeometry x="190" y="70" width="60" height="20" as="geometry" />
        </mxCell>
        <mxCell id="GRe6sTUg2VjY-s5vXv-f-40" value="" style="endArrow=none;html=1;strokeWidth=2;strokeColor=#EA6B66;" parent="1" edge="1">
          <mxGeometry width="50" height="50" relative="1" as="geometry">
            <mxPoint x="100" y="110" as="sourcePoint" />
            <mxPoint x="170" y="110" as="targetPoint" />
          </mxGeometry>
        </mxCell>
        <mxCell id="GRe6sTUg2VjY-s5vXv-f-41" value="filter working" style="text;html=1;align=center;verticalAlign=middle;resizable=0;points=[];autosize=1;" parent="1" vertex="1">
          <mxGeometry x="180" y="100" width="80" height="20" as="geometry" />
        </mxCell>
        <mxCell id="GRe6sTUg2VjY-s5vXv-f-45" value="" style="endArrow=classic;html=1;strokeColor=#EA6B66;strokeWidth=1;" parent="1" edge="1">
          <mxGeometry width="50" height="50" relative="1" as="geometry">
            <mxPoint x="340" y="200" as="sourcePoint" />
            <mxPoint x="540" y="200" as="targetPoint" />
          </mxGeometry>
        </mxCell>
        <mxCell id="GRe6sTUg2VjY-s5vXv-f-46" value="&lt;font color=&quot;#ea6b66&quot;&gt;av_buffersrc_add_frame&lt;/font&gt;" style="text;html=1;align=center;verticalAlign=middle;resizable=0;points=[];autosize=1;" parent="1" vertex="1">
          <mxGeometry x="360" y="170" width="150" height="20" as="geometry" />
        </mxCell>
        <mxCell id="GRe6sTUg2VjY-s5vXv-f-48" value="" style="endArrow=classic;html=1;strokeColor=#EA6B66;strokeWidth=1;" parent="1" edge="1">
          <mxGeometry width="50" height="50" relative="1" as="geometry">
            <mxPoint x="550" y="510" as="sourcePoint" />
            <mxPoint x="340" y="510" as="targetPoint" />
          </mxGeometry>
        </mxCell>
        <mxCell id="GRe6sTUg2VjY-s5vXv-f-49" value="&lt;font color=&quot;#ea6b66&quot;&gt;av_buffersink_get_frame&lt;/font&gt;" style="text;whiteSpace=wrap;html=1;" parent="1" vertex="1">
          <mxGeometry x="370" y="480" width="160" height="30" as="geometry" />
        </mxCell>
        <mxCell id="4-DcsCZ1qSqheTTb1dQe-1" value="" style="curved=1;endArrow=classic;html=1;" parent="1" edge="1">
          <mxGeometry width="50" height="50" relative="1" as="geometry">
            <mxPoint x="100" y="300" as="sourcePoint" />
            <mxPoint x="180" y="300" as="targetPoint" />
            <Array as="points">
              <mxPoint x="90" y="220" />
              <mxPoint x="190" y="220" />
            </Array>
          </mxGeometry>
        </mxCell>
        <mxCell id="4-DcsCZ1qSqheTTb1dQe-2" value="avfilter_graph_alloc" style="text;whiteSpace=wrap;html=1;" parent="1" vertex="1">
          <mxGeometry x="80" y="180" width="130" height="30" as="geometry" />
        </mxCell>
        <mxCell id="4-DcsCZ1qSqheTTb1dQe-3" value="1" style="ellipse;whiteSpace=wrap;html=1;aspect=fixed;strokeWidth=2;fontFamily=Tahoma;spacingBottom=4;spacingRight=2;" parent="1" vertex="1">
          <mxGeometry x="50" y="185" width="20" height="20" as="geometry" />
        </mxCell>
        <mxCell id="7ddNN4WGWn9DwL5LELNG-1" value="2" style="ellipse;whiteSpace=wrap;html=1;aspect=fixed;strokeWidth=2;fontFamily=Tahoma;spacingBottom=4;spacingRight=2;" parent="1" vertex="1">
          <mxGeometry x="1190" y="205" width="20" height="20" as="geometry" />
        </mxCell>
        <mxCell id="7ddNN4WGWn9DwL5LELNG-2" value="3" style="ellipse;whiteSpace=wrap;html=1;aspect=fixed;strokeWidth=2;fontFamily=Tahoma;spacingBottom=4;spacingRight=2;" parent="1" vertex="1">
          <mxGeometry x="900" y="200" width="20" height="20" as="geometry" />
        </mxCell>
        <mxCell id="7ddNN4WGWn9DwL5LELNG-3" value="4" style="ellipse;whiteSpace=wrap;html=1;aspect=fixed;strokeWidth=2;fontFamily=Tahoma;spacingBottom=4;spacingRight=2;" parent="1" vertex="1">
          <mxGeometry x="700" y="75" width="20" height="20" as="geometry" />
        </mxCell>
        <mxCell id="7ddNN4WGWn9DwL5LELNG-4" value="5" style="ellipse;whiteSpace=wrap;html=1;aspect=fixed;strokeWidth=2;fontFamily=Tahoma;spacingBottom=4;spacingRight=2;" parent="1" vertex="1">
          <mxGeometry x="270" y="335" width="20" height="20" as="geometry" />
        </mxCell>
        <mxCell id="7ddNN4WGWn9DwL5LELNG-5" value="6" style="ellipse;whiteSpace=wrap;html=1;aspect=fixed;strokeWidth=2;fontFamily=Tahoma;spacingBottom=4;spacingRight=2;" parent="1" vertex="1">
          <mxGeometry x="335" y="170" width="20" height="20" as="geometry" />
        </mxCell>
        <mxCell id="7ddNN4WGWn9DwL5LELNG-6" value="7" style="ellipse;whiteSpace=wrap;html=1;aspect=fixed;strokeWidth=2;fontFamily=Tahoma;spacingBottom=4;spacingRight=2;" parent="1" vertex="1">
          <mxGeometry x="335" y="480" width="20" height="20" as="geometry" />
        </mxCell>
      </root>
    </mxGraphModel>
  </diagram>
  <diagram id="izR2gSLUGvHLDe-VX9jB" name="codec">
    <mxGraphModel dx="1434" dy="785" grid="1" gridSize="10" guides="1" tooltips="1" connect="1" arrows="1" fold="1" page="1" pageScale="1" pageWidth="3300" pageHeight="2339" math="0" shadow="0">
      <root>
        <mxCell id="rVfQUiRYJiFs6NojlkFv-0" />
        <mxCell id="rVfQUiRYJiFs6NojlkFv-1" parent="rVfQUiRYJiFs6NojlkFv-0" />
        <mxCell id="FFix03ecuePUJR7T5XGq-0" value="avcodec_find_encoder_by_name" style="text;whiteSpace=wrap;html=1;" parent="rVfQUiRYJiFs6NojlkFv-1" vertex="1">
          <mxGeometry x="280" y="210" width="185" height="25" as="geometry" />
        </mxCell>
        <mxCell id="FFix03ecuePUJR7T5XGq-1" value="1" style="ellipse;whiteSpace=wrap;html=1;aspect=fixed;strokeWidth=2;fontFamily=Tahoma;spacingBottom=4;spacingRight=2;" parent="rVfQUiRYJiFs6NojlkFv-1" vertex="1">
          <mxGeometry x="240" y="215" width="20" height="20" as="geometry" />
        </mxCell>
        <mxCell id="aJBBDSVV2xOAeqqLBHpn-0" value="avcodec_alloc_context3" style="text;whiteSpace=wrap;html=1;" parent="rVfQUiRYJiFs6NojlkFv-1" vertex="1">
          <mxGeometry x="280" y="255" width="140" height="25" as="geometry" />
        </mxCell>
        <mxCell id="aJBBDSVV2xOAeqqLBHpn-1" value="2" style="ellipse;whiteSpace=wrap;html=1;aspect=fixed;strokeWidth=2;fontFamily=Tahoma;spacingBottom=4;spacingRight=2;" parent="rVfQUiRYJiFs6NojlkFv-1" vertex="1">
          <mxGeometry x="240" y="255" width="20" height="20" as="geometry" />
        </mxCell>
        <mxCell id="aJBBDSVV2xOAeqqLBHpn-3" value="3" style="ellipse;whiteSpace=wrap;html=1;aspect=fixed;strokeWidth=2;fontFamily=Tahoma;spacingBottom=4;spacingRight=2;" parent="rVfQUiRYJiFs6NojlkFv-1" vertex="1">
          <mxGeometry x="240" y="300" width="20" height="20" as="geometry" />
        </mxCell>
        <mxCell id="aJBBDSVV2xOAeqqLBHpn-4" value="init bitrate width height" style="text;html=1;align=center;verticalAlign=middle;resizable=0;points=[];autosize=1;" parent="rVfQUiRYJiFs6NojlkFv-1" vertex="1">
          <mxGeometry x="275" y="300" width="130" height="20" as="geometry" />
        </mxCell>
        <mxCell id="aJBBDSVV2xOAeqqLBHpn-5" value="4" style="ellipse;whiteSpace=wrap;html=1;aspect=fixed;strokeWidth=2;fontFamily=Tahoma;spacingBottom=4;spacingRight=2;" parent="rVfQUiRYJiFs6NojlkFv-1" vertex="1">
          <mxGeometry x="242.5" y="460" width="20" height="20" as="geometry" />
        </mxCell>
        <mxCell id="aJBBDSVV2xOAeqqLBHpn-6" value="avcodec_open2" style="text;html=1;align=center;verticalAlign=middle;resizable=0;points=[];autosize=1;" parent="rVfQUiRYJiFs6NojlkFv-1" vertex="1">
          <mxGeometry x="275" y="460" width="100" height="20" as="geometry" />
        </mxCell>
        <mxCell id="aJBBDSVV2xOAeqqLBHpn-7" value="5" style="ellipse;whiteSpace=wrap;html=1;aspect=fixed;strokeWidth=2;fontFamily=Tahoma;spacingBottom=4;spacingRight=2;" parent="rVfQUiRYJiFs6NojlkFv-1" vertex="1">
          <mxGeometry x="242.5" y="500" width="20" height="20" as="geometry" />
        </mxCell>
        <mxCell id="aJBBDSVV2xOAeqqLBHpn-8" value="avcodec_send_frame" style="text;html=1;align=center;verticalAlign=middle;resizable=0;points=[];autosize=1;" parent="rVfQUiRYJiFs6NojlkFv-1" vertex="1">
          <mxGeometry x="275" y="500" width="130" height="20" as="geometry" />
        </mxCell>
        <mxCell id="aJBBDSVV2xOAeqqLBHpn-9" value="6" style="ellipse;whiteSpace=wrap;html=1;aspect=fixed;strokeWidth=2;fontFamily=Tahoma;spacingBottom=4;spacingRight=2;" parent="rVfQUiRYJiFs6NojlkFv-1" vertex="1">
          <mxGeometry x="242.5" y="540" width="20" height="20" as="geometry" />
        </mxCell>
        <mxCell id="aJBBDSVV2xOAeqqLBHpn-10" value="avcodec_receive_packet" style="text;html=1;align=center;verticalAlign=middle;resizable=0;points=[];autosize=1;" parent="rVfQUiRYJiFs6NojlkFv-1" vertex="1">
          <mxGeometry x="270" y="540" width="150" height="20" as="geometry" />
        </mxCell>
        <mxCell id="aJBBDSVV2xOAeqqLBHpn-11" value="AVCodec&lt;br&gt;&amp;nbsp; &amp;nbsp; .init&lt;br&gt;&amp;nbsp; &amp;nbsp; .encode2&amp;nbsp;&lt;br&gt;&lt;br&gt;" style="rounded=0;whiteSpace=wrap;html=1;strokeColor=#000000;align=left;" parent="rVfQUiRYJiFs6NojlkFv-1" vertex="1">
          <mxGeometry x="710" y="215" width="120" height="60" as="geometry" />
        </mxCell>
        <mxCell id="1usxRrjdF3iKy9m3H2Jx-1" value="codec_list" style="rounded=0;whiteSpace=wrap;html=1;strokeColor=#000000;align=center;" parent="rVfQUiRYJiFs6NojlkFv-1" vertex="1">
          <mxGeometry x="710" y="100" width="100" height="60" as="geometry" />
        </mxCell>
        <mxCell id="Ssjjh2UJ-SYeeLnkg48j-2" value="&lt;div style=&quot;&quot;&gt;&lt;span style=&quot;background-color: initial;&quot;&gt;AVCodecContext&lt;/span&gt;&lt;/div&gt;&lt;span style=&quot;&quot;&gt;&lt;div style=&quot;&quot;&gt;&lt;br&gt;&lt;/div&gt;&lt;div style=&quot;&quot;&gt;&lt;span style=&quot;background-color: initial;&quot;&gt;&amp;nbsp; AVCodec&amp;nbsp; *codec&lt;/span&gt;&lt;/div&gt;&lt;div style=&quot;&quot;&gt;&lt;span style=&quot;background-color: initial;&quot;&gt;&amp;nbsp; AVCodecInternal *internal&lt;/span&gt;&lt;/div&gt;&lt;div style=&quot;&quot;&gt;&lt;br&gt;&lt;/div&gt;&lt;/span&gt;" style="rounded=0;whiteSpace=wrap;html=1;strokeColor=#000000;align=left;" parent="rVfQUiRYJiFs6NojlkFv-1" vertex="1">
          <mxGeometry x="710" y="350" width="160" height="70" as="geometry" />
        </mxCell>
        <mxCell id="D9hPl3z5hen9ilcAUz6q-3" value="init" style="text;html=1;align=center;verticalAlign=middle;resizable=0;points=[];autosize=1;" parent="rVfQUiRYJiFs6NojlkFv-1" vertex="1">
          <mxGeometry x="700" y="310" width="30" height="20" as="geometry" />
        </mxCell>
        <mxCell id="D9hPl3z5hen9ilcAUz6q-5" value="encode" style="text;html=1;align=center;verticalAlign=middle;resizable=0;points=[];autosize=1;" parent="rVfQUiRYJiFs6NojlkFv-1" vertex="1">
          <mxGeometry x="750" y="310" width="50" height="20" as="geometry" />
        </mxCell>
        <mxCell id="iVVkNjdoxWxZtb5ODaaW-0" value="" style="rounded=0;whiteSpace=wrap;html=1;dashed=1;" vertex="1" parent="rVfQUiRYJiFs6NojlkFv-1">
          <mxGeometry x="77.5" y="40" width="172.5" height="70" as="geometry" />
        </mxCell>
        <mxCell id="iVVkNjdoxWxZtb5ODaaW-1" value="" style="endArrow=none;html=1;strokeWidth=2;" edge="1" parent="rVfQUiRYJiFs6NojlkFv-1">
          <mxGeometry width="50" height="50" relative="1" as="geometry">
            <mxPoint x="97.5" y="55" as="sourcePoint" />
            <mxPoint x="167.5" y="55" as="targetPoint" />
          </mxGeometry>
        </mxCell>
        <mxCell id="iVVkNjdoxWxZtb5ODaaW-2" value="user" style="text;html=1;align=center;verticalAlign=middle;resizable=0;points=[];autosize=1;" vertex="1" parent="rVfQUiRYJiFs6NojlkFv-1">
          <mxGeometry x="192.5" y="45" width="40" height="20" as="geometry" />
        </mxCell>
        <mxCell id="iVVkNjdoxWxZtb5ODaaW-3" value="" style="endArrow=none;html=1;strokeWidth=2;strokeColor=#EA6B66;" edge="1" parent="rVfQUiRYJiFs6NojlkFv-1">
          <mxGeometry width="50" height="50" relative="1" as="geometry">
            <mxPoint x="97.5" y="85" as="sourcePoint" />
            <mxPoint x="167.5" y="85" as="targetPoint" />
          </mxGeometry>
        </mxCell>
        <mxCell id="iVVkNjdoxWxZtb5ODaaW-4" value="internal" style="text;html=1;align=center;verticalAlign=middle;resizable=0;points=[];autosize=1;" vertex="1" parent="rVfQUiRYJiFs6NojlkFv-1">
          <mxGeometry x="192.5" y="75" width="50" height="20" as="geometry" />
        </mxCell>
        <mxCell id="9ZusT2LwUUGmrLIG3UJ8-0" value="" style="endArrow=classic;html=1;" edge="1" parent="rVfQUiRYJiFs6NojlkFv-1">
          <mxGeometry width="50" height="50" relative="1" as="geometry">
            <mxPoint x="480" y="222" as="sourcePoint" />
            <mxPoint x="640" y="170" as="targetPoint" />
          </mxGeometry>
        </mxCell>
        <mxCell id="f22We63VEnYJFd2yejGe-0" value="" style="endArrow=classic;html=1;strokeColor=#EA6B66;" edge="1" parent="rVfQUiRYJiFs6NojlkFv-1">
          <mxGeometry width="50" height="50" relative="1" as="geometry">
            <mxPoint x="759.5" y="170" as="sourcePoint" />
            <mxPoint x="760" y="210" as="targetPoint" />
          </mxGeometry>
        </mxCell>
        <mxCell id="f22We63VEnYJFd2yejGe-1" value="" style="endArrow=classic;html=1;" edge="1" parent="rVfQUiRYJiFs6NojlkFv-1">
          <mxGeometry width="50" height="50" relative="1" as="geometry">
            <mxPoint x="480" y="272" as="sourcePoint" />
            <mxPoint x="680" y="360" as="targetPoint" />
          </mxGeometry>
        </mxCell>
        <mxCell id="f22We63VEnYJFd2yejGe-2" value="" style="endArrow=classic;html=1;" edge="1" parent="rVfQUiRYJiFs6NojlkFv-1">
          <mxGeometry width="50" height="50" relative="1" as="geometry">
            <mxPoint x="450" y="310" as="sourcePoint" />
            <mxPoint x="650" y="398" as="targetPoint" />
          </mxGeometry>
        </mxCell>
        <mxCell id="f22We63VEnYJFd2yejGe-4" value="" style="curved=1;endArrow=classic;html=1;rounded=0;" edge="1" parent="rVfQUiRYJiFs6NojlkFv-1">
          <mxGeometry width="50" height="50" relative="1" as="geometry">
            <mxPoint x="480" y="480" as="sourcePoint" />
            <mxPoint x="730" y="430" as="targetPoint" />
            <Array as="points">
              <mxPoint x="530" y="480" />
              <mxPoint x="600" y="480" />
              <mxPoint x="730" y="480" />
            </Array>
          </mxGeometry>
        </mxCell>
        <mxCell id="f22We63VEnYJFd2yejGe-9" value="" style="endArrow=classic;html=1;strokeColor=#EA6B66;" edge="1" parent="rVfQUiRYJiFs6NojlkFv-1">
          <mxGeometry width="50" height="50" relative="1" as="geometry">
            <mxPoint x="730" y="340" as="sourcePoint" />
            <mxPoint x="730" y="300" as="targetPoint" />
          </mxGeometry>
        </mxCell>
        <mxCell id="f22We63VEnYJFd2yejGe-10" value="" style="curved=1;endArrow=classic;html=1;rounded=0;" edge="1" parent="rVfQUiRYJiFs6NojlkFv-1">
          <mxGeometry width="50" height="50" relative="1" as="geometry">
            <mxPoint x="480" y="520" as="sourcePoint" />
            <mxPoint x="790" y="430" as="targetPoint" />
            <Array as="points">
              <mxPoint x="530" y="520" />
              <mxPoint x="600" y="520" />
              <mxPoint x="730" y="520" />
              <mxPoint x="790" y="510" />
            </Array>
          </mxGeometry>
        </mxCell>
        <mxCell id="f22We63VEnYJFd2yejGe-12" value="" style="endArrow=classic;html=1;strokeColor=#EA6B66;" edge="1" parent="rVfQUiRYJiFs6NojlkFv-1">
          <mxGeometry width="50" height="50" relative="1" as="geometry">
            <mxPoint x="800" y="340" as="sourcePoint" />
            <mxPoint x="800" y="300" as="targetPoint" />
          </mxGeometry>
        </mxCell>
        <mxCell id="f22We63VEnYJFd2yejGe-14" value="" style="curved=1;endArrow=classic;html=1;rounded=0;" edge="1" parent="rVfQUiRYJiFs6NojlkFv-1">
          <mxGeometry width="50" height="50" relative="1" as="geometry">
            <mxPoint x="480" y="555" as="sourcePoint" />
            <mxPoint x="860" y="430" as="targetPoint" />
            <Array as="points">
              <mxPoint x="530" y="555" />
              <mxPoint x="600" y="555" />
              <mxPoint x="730" y="555" />
              <mxPoint x="790" y="545" />
              <mxPoint x="860" y="520" />
            </Array>
          </mxGeometry>
        </mxCell>
      </root>
    </mxGraphModel>
  </diagram>
  <diagram id="eO_nyLDka6DhA_GLIErQ" name="format">
    <mxGraphModel dx="1434" dy="785" grid="1" gridSize="10" guides="1" tooltips="1" connect="1" arrows="1" fold="1" page="1" pageScale="1" pageWidth="3300" pageHeight="2339" math="0" shadow="0">
      <root>
        <mxCell id="GUhWNimVid2fflq-KRf4-0" />
        <mxCell id="GUhWNimVid2fflq-KRf4-1" parent="GUhWNimVid2fflq-KRf4-0" />
        <mxCell id="jqiQnY0Gy6-UrBEDOesy-0" value="&lt;span style=&quot;text-align: left&quot;&gt;muxer_list&lt;/span&gt;" style="rounded=0;whiteSpace=wrap;html=1;strokeColor=#000000;align=center;" parent="GUhWNimVid2fflq-KRf4-1" vertex="1">
          <mxGeometry x="720" y="75" width="100" height="60" as="geometry" />
        </mxCell>
        <mxCell id="jqiQnY0Gy6-UrBEDOesy-1" value="&lt;span style=&quot;font-weight: normal&quot;&gt;avformat_alloc_output_context2&lt;/span&gt;" style="text;whiteSpace=wrap;html=1;fontStyle=1" parent="GUhWNimVid2fflq-KRf4-1" vertex="1">
          <mxGeometry x="192.5" y="230" width="200" height="30" as="geometry" />
        </mxCell>
        <mxCell id="jqiQnY0Gy6-UrBEDOesy-3" value="&lt;div&gt;&lt;span&gt;AVFormatContext&lt;/span&gt;&lt;/div&gt;&lt;div&gt;&lt;span&gt;&lt;br&gt;&lt;/span&gt;&lt;/div&gt;&lt;span&gt;&lt;div&gt;&amp;nbsp; AVStream **streams&lt;br&gt;&lt;/div&gt;&lt;div&gt;&amp;nbsp; AVOutputFormat *oformat&lt;/div&gt;&lt;div&gt;&lt;br&gt;&lt;/div&gt;&lt;/span&gt;" style="rounded=0;whiteSpace=wrap;html=1;strokeColor=#000000;align=left;" parent="GUhWNimVid2fflq-KRf4-1" vertex="1">
          <mxGeometry x="530" y="190" width="180" height="80" as="geometry" />
        </mxCell>
        <mxCell id="f-qgsVdwOVTJpM0BySM3-0" value="avformat_new_stream" style="text;whiteSpace=wrap;html=1;" parent="GUhWNimVid2fflq-KRf4-1" vertex="1">
          <mxGeometry x="200" y="310" width="140" height="30" as="geometry" />
        </mxCell>
        <mxCell id="f-qgsVdwOVTJpM0BySM3-1" value="&lt;div style=&quot;&quot;&gt;&lt;span&gt;AVStream&lt;/span&gt;&lt;/div&gt;&lt;div style=&quot;&quot;&gt;&lt;span style=&quot;background-color: initial;&quot;&gt;&amp;nbsp; AVCodecParameters *codecpar&lt;/span&gt;&lt;/div&gt;&lt;div style=&quot;&quot;&gt;&lt;span style=&quot;background-color: initial;&quot;&gt;&lt;br&gt;&lt;/span&gt;&lt;/div&gt;&lt;div style=&quot;&quot;&gt;&lt;span style=&quot;background-color: initial;&quot;&gt;&lt;br&gt;&lt;/span&gt;&lt;/div&gt;" style="rounded=0;whiteSpace=wrap;html=1;strokeColor=#000000;align=left;" parent="GUhWNimVid2fflq-KRf4-1" vertex="1">
          <mxGeometry x="530" y="320" width="210" height="75" as="geometry" />
        </mxCell>
        <mxCell id="SwFSrTVqp23YENf7rWB8-1" value="&lt;div style=&quot;&quot;&gt;&lt;span style=&quot;background-color: initial;&quot;&gt;AVOutputFormat&amp;nbsp; &amp;nbsp; &amp;nbsp;&lt;/span&gt;&lt;/div&gt;&lt;div style=&quot;&quot;&gt;&lt;span style=&quot;background-color: initial;&quot;&gt;&amp;nbsp; ff_f4v_muxer&lt;/span&gt;&lt;/div&gt;&lt;div style=&quot;&quot;&gt;&amp;nbsp; &amp;nbsp; .write_packet&lt;/div&gt;&lt;div style=&quot;&quot;&gt;&lt;span style=&quot;background-color: initial;&quot;&gt;&lt;br&gt;&lt;/span&gt;&lt;/div&gt;" style="rounded=0;whiteSpace=wrap;html=1;strokeColor=#000000;align=left;" parent="GUhWNimVid2fflq-KRf4-1" vertex="1">
          <mxGeometry x="800" y="200" width="160" height="60" as="geometry" />
        </mxCell>
        <mxCell id="SwFSrTVqp23YENf7rWB8-2" value="av_interleaved_write_frame" style="text;whiteSpace=wrap;html=1;" parent="GUhWNimVid2fflq-KRf4-1" vertex="1">
          <mxGeometry x="200" y="180" width="170" height="30" as="geometry" />
        </mxCell>
        <mxCell id="OrUMW6kkdr6MTkKZIu3w-2" value="" style="endArrow=classic;html=1;" parent="GUhWNimVid2fflq-KRf4-1" edge="1">
          <mxGeometry width="50" height="50" relative="1" as="geometry">
            <mxPoint x="392.5" y="244.5" as="sourcePoint" />
            <mxPoint x="492.5" y="244.5" as="targetPoint" />
          </mxGeometry>
        </mxCell>
        <mxCell id="_px5xkxm7bQw1sn9uGEm-0" value="1" style="ellipse;whiteSpace=wrap;html=1;aspect=fixed;strokeWidth=2;fontFamily=Tahoma;spacingBottom=4;spacingRight=2;" parent="GUhWNimVid2fflq-KRf4-1" vertex="1">
          <mxGeometry x="160" y="240" width="20" height="20" as="geometry" />
        </mxCell>
        <mxCell id="_px5xkxm7bQw1sn9uGEm-3" value="2" style="ellipse;whiteSpace=wrap;html=1;aspect=fixed;strokeWidth=2;fontFamily=Tahoma;spacingBottom=4;spacingRight=2;" parent="GUhWNimVid2fflq-KRf4-1" vertex="1">
          <mxGeometry x="160" y="315" width="20" height="20" as="geometry" />
        </mxCell>
        <mxCell id="_px5xkxm7bQw1sn9uGEm-4" value="" style="endArrow=classic;html=1;" parent="GUhWNimVid2fflq-KRf4-1" edge="1">
          <mxGeometry width="50" height="50" relative="1" as="geometry">
            <mxPoint x="390" y="320" as="sourcePoint" />
            <mxPoint x="490" y="320" as="targetPoint" />
          </mxGeometry>
        </mxCell>
        <mxCell id="_px5xkxm7bQw1sn9uGEm-5" value="4" style="ellipse;whiteSpace=wrap;html=1;aspect=fixed;strokeWidth=2;fontFamily=Tahoma;spacingBottom=4;spacingRight=2;" parent="GUhWNimVid2fflq-KRf4-1" vertex="1">
          <mxGeometry x="160" y="185" width="20" height="20" as="geometry" />
        </mxCell>
        <mxCell id="_px5xkxm7bQw1sn9uGEm-6" value="write_packet" style="text;whiteSpace=wrap;html=1;" parent="GUhWNimVid2fflq-KRf4-1" vertex="1">
          <mxGeometry x="835" y="342.5" width="90" height="30" as="geometry" />
        </mxCell>
        <mxCell id="etZoHOWpAmgxghZp4zFb-0" value="" style="rounded=0;whiteSpace=wrap;html=1;dashed=1;" vertex="1" parent="GUhWNimVid2fflq-KRf4-1">
          <mxGeometry x="77.5" y="40" width="172.5" height="70" as="geometry" />
        </mxCell>
        <mxCell id="etZoHOWpAmgxghZp4zFb-1" value="" style="endArrow=none;html=1;strokeWidth=2;" edge="1" parent="GUhWNimVid2fflq-KRf4-1">
          <mxGeometry width="50" height="50" relative="1" as="geometry">
            <mxPoint x="97.5" y="55" as="sourcePoint" />
            <mxPoint x="167.5" y="55" as="targetPoint" />
          </mxGeometry>
        </mxCell>
        <mxCell id="etZoHOWpAmgxghZp4zFb-2" value="user" style="text;html=1;align=center;verticalAlign=middle;resizable=0;points=[];autosize=1;" vertex="1" parent="GUhWNimVid2fflq-KRf4-1">
          <mxGeometry x="192.5" y="45" width="40" height="20" as="geometry" />
        </mxCell>
        <mxCell id="etZoHOWpAmgxghZp4zFb-3" value="" style="endArrow=none;html=1;strokeWidth=2;strokeColor=#EA6B66;" edge="1" parent="GUhWNimVid2fflq-KRf4-1">
          <mxGeometry width="50" height="50" relative="1" as="geometry">
            <mxPoint x="97.5" y="85" as="sourcePoint" />
            <mxPoint x="167.5" y="85" as="targetPoint" />
          </mxGeometry>
        </mxCell>
        <mxCell id="etZoHOWpAmgxghZp4zFb-4" value="internal" style="text;html=1;align=center;verticalAlign=middle;resizable=0;points=[];autosize=1;" vertex="1" parent="GUhWNimVid2fflq-KRf4-1">
          <mxGeometry x="192.5" y="75" width="50" height="20" as="geometry" />
        </mxCell>
        <mxCell id="AtJx3Lw3JrAE6cFHEh_k-0" value="" style="endArrow=classic;html=1;strokeColor=#EA6B66;" edge="1" parent="GUhWNimVid2fflq-KRf4-1">
          <mxGeometry width="50" height="50" relative="1" as="geometry">
            <mxPoint x="630" y="170" as="sourcePoint" />
            <mxPoint x="700" y="120" as="targetPoint" />
          </mxGeometry>
        </mxCell>
        <mxCell id="Suv_cLALzqUKiOe7DAvm-0" value="" style="endArrow=classic;html=1;strokeColor=#EA6B66;" edge="1" parent="GUhWNimVid2fflq-KRf4-1">
          <mxGeometry width="50" height="50" relative="1" as="geometry">
            <mxPoint x="840" y="120" as="sourcePoint" />
            <mxPoint x="895" y="170" as="targetPoint" />
          </mxGeometry>
        </mxCell>
        <mxCell id="Suv_cLALzqUKiOe7DAvm-1" value="avcodec_parameters_from_context" style="text;whiteSpace=wrap;" vertex="1" parent="GUhWNimVid2fflq-KRf4-1">
          <mxGeometry x="200" y="370" width="207.5" height="30" as="geometry" />
        </mxCell>
        <mxCell id="Suv_cLALzqUKiOe7DAvm-2" value="3" style="ellipse;whiteSpace=wrap;html=1;aspect=fixed;strokeWidth=2;fontFamily=Tahoma;spacingBottom=4;spacingRight=2;" vertex="1" parent="GUhWNimVid2fflq-KRf4-1">
          <mxGeometry x="160" y="370" width="20" height="20" as="geometry" />
        </mxCell>
        <mxCell id="Suv_cLALzqUKiOe7DAvm-8" value="&lt;div style=&quot;&quot;&gt;AVCodecContext&lt;br&gt;&lt;/div&gt;&lt;div style=&quot;&quot;&gt;&lt;br&gt;&lt;/div&gt;&lt;div style=&quot;&quot;&gt;&lt;br&gt;&lt;/div&gt;" style="rounded=0;whiteSpace=wrap;html=1;strokeColor=#000000;align=left;" vertex="1" parent="GUhWNimVid2fflq-KRf4-1">
          <mxGeometry x="530" y="460" width="120" height="60" as="geometry" />
        </mxCell>
        <mxCell id="Suv_cLALzqUKiOe7DAvm-9" value="" style="endArrow=classic;html=1;" edge="1" parent="GUhWNimVid2fflq-KRf4-1">
          <mxGeometry width="50" height="50" relative="1" as="geometry">
            <mxPoint x="407.5" y="390" as="sourcePoint" />
            <mxPoint x="507.5" y="390" as="targetPoint" />
          </mxGeometry>
        </mxCell>
        <mxCell id="Suv_cLALzqUKiOe7DAvm-10" value="" style="endArrow=classic;html=1;strokeColor=#EA6B66;" edge="1" parent="GUhWNimVid2fflq-KRf4-1">
          <mxGeometry width="50" height="50" relative="1" as="geometry">
            <mxPoint x="560" y="450" as="sourcePoint" />
            <mxPoint x="560" y="400" as="targetPoint" />
          </mxGeometry>
        </mxCell>
        <mxCell id="omaVzeXiXW3sd-1LGiMh-4" value="" style="endArrow=classic;html=1;" edge="1" parent="GUhWNimVid2fflq-KRf4-1">
          <mxGeometry width="50" height="50" relative="1" as="geometry">
            <mxPoint x="392.5" y="194.5" as="sourcePoint" />
            <mxPoint x="492.5" y="194.5" as="targetPoint" />
          </mxGeometry>
        </mxCell>
        <mxCell id="omaVzeXiXW3sd-1LGiMh-5" value="&lt;font color=&quot;#ea6b66&quot;&gt;1&lt;/font&gt;" style="ellipse;whiteSpace=wrap;html=1;aspect=fixed;strokeWidth=2;fontFamily=Tahoma;spacingBottom=4;spacingRight=2;strokeColor=#EA6B66;" vertex="1" parent="GUhWNimVid2fflq-KRf4-1">
          <mxGeometry x="650" y="120" width="20" height="20" as="geometry" />
        </mxCell>
        <mxCell id="omaVzeXiXW3sd-1LGiMh-6" value="&lt;font color=&quot;#ea6b66&quot;&gt;1&lt;/font&gt;" style="ellipse;whiteSpace=wrap;html=1;aspect=fixed;strokeWidth=2;fontFamily=Tahoma;spacingBottom=4;spacingRight=2;strokeColor=#EA6B66;" vertex="1" parent="GUhWNimVid2fflq-KRf4-1">
          <mxGeometry x="880" y="130" width="20" height="20" as="geometry" />
        </mxCell>
        <mxCell id="omaVzeXiXW3sd-1LGiMh-7" value="&lt;font color=&quot;#ea6b66&quot;&gt;3&lt;/font&gt;" style="ellipse;whiteSpace=wrap;html=1;aspect=fixed;strokeWidth=2;fontFamily=Tahoma;spacingBottom=4;spacingRight=2;strokeColor=#EA6B66;" vertex="1" parent="GUhWNimVid2fflq-KRf4-1">
          <mxGeometry x="570" y="420" width="20" height="20" as="geometry" />
        </mxCell>
        <mxCell id="omaVzeXiXW3sd-1LGiMh-8" value="" style="endArrow=classic;html=1;strokeColor=#EA6B66;" edge="1" parent="GUhWNimVid2fflq-KRf4-1">
          <mxGeometry width="50" height="50" relative="1" as="geometry">
            <mxPoint x="659.5" y="280" as="sourcePoint" />
            <mxPoint x="660" y="310" as="targetPoint" />
          </mxGeometry>
        </mxCell>
        <mxCell id="omaVzeXiXW3sd-1LGiMh-9" value="" style="curved=1;endArrow=classic;html=1;rounded=0;strokeColor=#EA6B66;" edge="1" parent="GUhWNimVid2fflq-KRf4-1">
          <mxGeometry width="50" height="50" relative="1" as="geometry">
            <mxPoint x="750" y="360" as="sourcePoint" />
            <mxPoint x="850" y="280" as="targetPoint" />
            <Array as="points">
              <mxPoint x="800" y="360" />
              <mxPoint x="830" y="340" />
            </Array>
          </mxGeometry>
        </mxCell>
        <mxCell id="omaVzeXiXW3sd-1LGiMh-10" value="&lt;font color=&quot;#ea6b66&quot;&gt;4&lt;/font&gt;" style="ellipse;whiteSpace=wrap;html=1;aspect=fixed;strokeWidth=2;fontFamily=Tahoma;spacingBottom=4;spacingRight=2;strokeColor=#EA6B66;" vertex="1" parent="GUhWNimVid2fflq-KRf4-1">
          <mxGeometry x="670" y="290" width="20" height="20" as="geometry" />
        </mxCell>
        <mxCell id="omaVzeXiXW3sd-1LGiMh-11" value="&lt;font color=&quot;#ea6b66&quot;&gt;4&lt;/font&gt;" style="ellipse;whiteSpace=wrap;html=1;aspect=fixed;strokeWidth=2;fontFamily=Tahoma;spacingBottom=4;spacingRight=2;strokeColor=#EA6B66;" vertex="1" parent="GUhWNimVid2fflq-KRf4-1">
          <mxGeometry x="790" y="315" width="20" height="20" as="geometry" />
        </mxCell>
      </root>
    </mxGraphModel>
  </diagram>
  <diagram id="NNUA9OhhdB-leXDqn-eV" name="sync">
    <mxGraphModel dx="1434" dy="785" grid="1" gridSize="10" guides="1" tooltips="1" connect="1" arrows="1" fold="1" page="1" pageScale="1" pageWidth="850" pageHeight="1100" math="0" shadow="0">
      <root>
        <mxCell id="0" />
        <mxCell id="1" parent="0" />
      </root>
    </mxGraphModel>
  </diagram>
</mxfile>
